:SAMPLES-PER-SECOND 25
:FULLY-SPECIFIED
:DEGREES
229
root  0.870603 66.8085 5.759 178.179 15.4879 -176.964
RightUpLeg  -0.410667 5.21729 6.91727
RightLeg  12.8959 0.543434 -0.790523
RightFoot  -13.003 -0.134868 -3.11178
RightToes  2.84633e-005 7.89722e-005 -0.000426369
Spine  2.43616 2.24881 2.0423
Spine1  4.92392 4.39295 5.2368
HEad  25.4235 0.217133 -8.45176
LeftShoulder1  -3.88251e-019 0 -3.92111e-022
LeftArm  -38.774 11.9532 -83.0651
LeftForeArm  29.5606 1.97747 2.45274
LeftHand  -0.627386 -3.90677 8.0981
RightShoulder  7.45443e-017 -2.42657e-020 1.96277e-018
RightArm  -24.7213 -6.97456 72.0309
RightForeArm  29.7641 5.575 7.42404
RightHand  -1.40498 10.4644 -10.6372
LeftUpLeg  -16.7203 0.463243 1.35358
LeftLeg  1.04909 5.8982 1.36319
LeftFoot  4.76481 -0.471323 3.10466
LeftToes  3.91355e-005 3.11907e-005 -4.10385e-006
230
root  1.04134 66.75 4.46639 178.472 15.5513 -177.269
RightUpLeg  1.17094 5.27411 6.41416
RightLeg  13.4495 0.5612 -0.716884
RightFoot  -15.4057 -0.20149 -2.74171
RightToes  2.84633e-005 7.89722e-005 -0.000426369
Spine  2.02925 1.96549 1.79897
Spine1  4.07213 3.83874 4.83281
HEad  26.4291 1.29702 -8.29027
LeftShoulder1  -3.88251e-019 0 -3.92111e-022
LeftArm  -39.3229 13.7557 -82.6577
LeftForeArm  29.4763 1.96914 2.82054
LeftHand  -0.601999 -3.8416 7.8333
RightShoulder  7.45443e-017 -2.42657e-020 1.96277e-018
RightArm  -25.0217 -7.35746 72.3183
RightForeArm  29.9367 5.91635 7.6008
RightHand  -1.36089 10.6018 -10.234
LeftUpLeg  -15.9739 0.261313 1.02526
LeftLeg  0.553012 6.40715 1.55605
LeftFoot  5.42664 -0.300759 1.82226
LeftToes  3.91355e-005 3.11907e-005 -4.10385e-006
231
root  1.2042 66.7023 3.0741 178.437 15.1853 -178.381
RightUpLeg  3.0222 5.21951 5.01684
RightLeg  14.0211 0.541069 -0.664885
RightFoot  -17.6252 -0.201525 -1.4999
RightToes  2.84633e-005 7.89722e-005 -0.000426369
Spine  1.64549 1.78572 1.24132
Spine1  3.26971 3.47256 3.76295
HEad  27.2967 1.47479 -7.9236
LeftShoulder1  -3.88251e-019 0 -3.92111e-022
LeftArm  -39.6764 15.1317 -82.439
LeftForeArm  29.919 1.95241 3.25372
LeftHand  -0.604105 -3.64507 8.01848
RightShoulder  7.45443e-017 -2.42657e-020 1.96277e-018
RightArm  -25.3141 -9.53773 72.5354
RightForeArm  27.8342 7.68725 7.99664
RightHand  -1.32872 10.5731 -10.02
LeftUpLeg  -14.3626 -0.338984 -0.237199
LeftLeg  1.18685 8.4246 1.51348
LeftFoot  6.33625 -0.361659 2.07779
LeftToes  3.91355e-005 3.11907e-005 -4.10385e-006
232
root  1.34545 66.6414 1.60379 177.649 14.8158 179.728
RightUpLeg  5.21624 5.42175 2.82641
RightLeg  15.3434 0.345633 -0.489357
RightFoot  -19.3153 -0.197446 -0.960333
RightToes  2.84633e-005 7.89722e-005 -0.000426369
Spine  1.45298 1.7879 0.362163
Spine1  2.84372 3.44503 2.13205
HEad  27.7037 0.908818 -7.43097
LeftShoulder1  -3.88251e-019 0 -3.92111e-022
LeftArm  -39.8091 16.1848 -82.3417
LeftForeArm  29.6254 1.96367 3.33795
LeftHand  -0.582967 -3.55088 7.82325
RightShoulder  7.45443e-017 -2.42657e-020 1.96277e-018
RightArm  -24.4802 -12.6646 72.6923
RightForeArm  23.3071 9.95813 8.37277
RightHand  -1.45104 10.6385 -10.8565
LeftUpLeg  -12.2519 -1.14914 -2.24307
LeftLeg  2.3502 9.69727 1.13053
LeftFoot  4.99898 -0.436091 2.82562
LeftToes  3.91355e-005 3.11907e-005 -4.10385e-006
233
root  1.42566 66.5581 0.107748 176.528 14.6415 177.782
RightUpLeg  6.15382 4.93697 0.185703
RightLeg  19.6935 0.536983 0.0394908
RightFoot  -20.3889 -0.0873422 0.542712
RightToes  2.84633e-005 7.89722e-005 -0.000426369
Spine  1.35334 1.81156 -0.5845
Spine1  2.5892 3.40247 0.580302
HEad  28.2824 0.477201 -6.87125
LeftShoulder1  -3.88251e-019 0 -3.92111e-022
LeftArm  -39.9394 16.8223 -82.0908
LeftForeArm  28.9109 1.98812 2.98242
LeftHand  -0.562023 -3.62159 7.49714
RightShoulder  7.45443e-017 -2.42657e-020 1.96277e-018
RightArm  -25.1037 -15.0395 72.987
RightForeArm  22.5211 10.0786 8.42217
RightHand  -1.57279 10.8494 -11.5859
LeftUpLeg  -10.32 -1.93312 -4.40913
LeftLeg  4.75442 10.0913 0.87804
LeftFoot  0.800308 -0.29001 2.65991
LeftToes  3.91355e-005 3.11907e-005 -4.10385e-006
234
root  1.44503 66.477 -1.25966 176.038 14.6785 176.218
RightUpLeg  3.78424 2.50612 -2.80663
RightLeg  28.4235 2.39325 1.20295
RightFoot  -18.0192 0.176994 5.3666
RightToes  2.84633e-005 7.89722e-005 -0.000426369
Spine  1.16457 1.81285 -1.57934
Spine1  2.12931 3.23849 -0.572437
HEad  29.4284 0.585068 -6.48777
LeftShoulder1  -3.88251e-019 0 -3.92111e-022
LeftArm  -40.0694 16.6463 -81.9726
LeftForeArm  28.7029 1.99658 2.76968
LeftHand  -0.579708 -3.63699 7.71197
RightShoulder  7.45443e-017 -2.42657e-020 1.96277e-018
RightArm  -27.5006 -16.2202 73.4308
RightForeArm  26.248 8.07971 7.55046
RightHand  -1.51401 10.6859 -11.2766
LeftUpLeg  -8.83071 -2.51027 -6.37221
LeftLeg  6.68655 10.8178 0.892904
LeftFoot  -2.88727 -0.1424 2.15574
LeftToes  3.91355e-005 3.11907e-005 -4.10385e-006
235
root  1.45345 66.2874 -2.42131 175.928 14.8514 175.056
RightUpLeg  -1.71654 0.319612 -5.37803
RightLeg  40.9131 3.2448 2.76849
RightFoot  -10.4593 -0.158116 8.88569
RightToes  2.84633e-005 7.89722e-005 -0.000426369
Spine  1.01486 1.75824 -2.41586
Spine1  1.75909 2.94587 -1.32561
HEad  30.3401 1.0773 -6.45832
LeftShoulder1  -3.88251e-019 0 -3.92111e-022
LeftArm  -39.9092 15.8967 -82.3907
LeftForeArm  28.1955 2.01382 2.63528
LeftHand  -0.590357 -3.67174 7.8205
RightShoulder  7.45443e-017 -2.42657e-020 1.96277e-018
RightArm  -28.514 -16.9736 73.7092
RightForeArm  27.6731 6.56376 5.9444
RightHand  -1.32079 9.85701 -10.3996
LeftUpLeg  -8.62446 -2.83526 -7.92772
LeftLeg  9.70427 11.5845 1.27099
LeftFoot  -5.90259 -0.0711405 2.2509
LeftToes  3.91355e-005 3.11907e-005 -4.10385e-006
236
root  1.49886 66.0167 -3.4228 174.916 14.7912 174.056
RightUpLeg  -7.49682 -1.33879 -7.25953
RightLeg  53.4521 1.99231 2.50243
RightFoot  -2.83796 -0.486351 6.27459
RightToes  2.84633e-005 7.89722e-005 -0.000426369
Spine  1.33958 1.46506 -3.01527
Spine1  2.38013 2.18504 -1.88717
HEad  30.1582 1.89334 -6.70861
LeftShoulder1  -3.88251e-019 0 -3.92111e-022
LeftArm  -39.4131 14.7501 -82.9861
LeftForeArm  27.0608 2.05551 2.13742
LeftHand  -0.581721 -3.91865 7.52106
RightShoulder  7.45443e-017 -2.42657e-020 1.96277e-018
RightArm  -28.7774 -17.3707 73.5105
RightForeArm  26.3243 6.08751 5.12058
RightHand  -1.21139 9.08441 -10.0569
LeftUpLeg  -8.17546 -2.33867 -9.44454
LeftLeg  13.7163 11.2044 1.8905
LeftFoot  -9.36576 0.0127965 2.52471
LeftToes  3.91355e-005 3.11907e-005 -4.10385e-006
237
root  1.57899 65.9071 -4.38747 173.312 14.3521 173.895
RightUpLeg  -11.8811 -2.93869 -7.86579
RightLeg  62.1404 -0.398349 -1.34609
RightFoot  -0.929931 -0.192871 1.96648
RightToes  2.84633e-005 7.89722e-005 -0.000426369
Spine  2.03073 0.965438 -3.18827
Spine1  3.77842 1.01551 -1.76547
HEad  29.3381 2.88088 -7.18874
LeftShoulder1  -3.88251e-019 0 -3.92111e-022
LeftArm  -38.7361 12.3811 -83.1994
LeftForeArm  27.1275 2.06706 1.72847
LeftHand  -0.634642 -4.15395 7.98975
RightShoulder  7.45443e-017 -2.42657e-020 1.96277e-018
RightArm  -28.8679 -16.9848 73.1363
RightForeArm  25.2673 5.58298 4.92858
RightHand  -1.25495 9.0232 -10.4435
LeftUpLeg  -5.96738 -1.61313 -10.2999
LeftLeg  16.0906 10.5103 2.51744
LeftFoot  -12.2159 0.0922971 2.48063
LeftToes  3.91355e-005 3.11907e-005 -4.10385e-006
238
root  1.72073 65.9581 -5.3731 172.555 14.0083 174.591
RightUpLeg  -15.9272 -4.20181 -7.08925
RightLeg  65.7189 -1.89962 -5.17878
RightFoot  -3.75267 -0.0076273 -0.279064
RightToes  2.84633e-005 7.89722e-005 -0.000426369
Spine  2.43348 0.576692 -2.99501
Spine1  4.64603 0.20015 -1.05588
HEad  29.3335 3.75373 -7.89263
LeftShoulder1  -3.88251e-019 0 -3.92111e-022
LeftArm  -37.8833 8.68051 -83.0959
LeftForeArm  28.9202 2.01931 1.83834
LeftHand  -0.745328 -4.12794 9.35769
RightShoulder  7.45443e-017 -2.42657e-020 1.96277e-018
RightArm  -28.9429 -16.4102 72.8755
RightForeArm  25.5269 4.75067 4.55287
RightHand  -1.30761 9.35119 -10.6371
LeftUpLeg  -3.68068 -1.29174 -10.1008
LeftLeg  17.0722 10.2122 2.99345
LeftFoot  -14.0605 0.146341 2.59109
LeftToes  3.91355e-005 3.11907e-005 -4.10385e-006
239
root  1.93071 66.0102 -6.35099 172.771 14.0015 175.494
RightUpLeg  -19.7848 -4.61134 -5.57153
RightLeg  64.2835 -1.69369 -4.44405
RightFoot  -6.64512 0.0297225 -1.85705
RightToes  2.84633e-005 7.89722e-005 -0.000426369
Spine  2.3271 0.342155 -2.54333
Spine1  4.53738 -0.0930041 -0.214102
HEad  30.8326 4.73701 -8.73958
LeftShoulder1  -3.88251e-019 0 -3.92111e-022
LeftArm  -37.0461 5.31667 -83.0705
LeftForeArm  30.0058 1.9862 1.91889
LeftHand  -0.781476 -4.06341 9.85857
RightShoulder  7.45443e-017 -2.42657e-020 1.96277e-018
RightArm  -28.9684 -16.4046 72.5553
RightForeArm  25.7884 4.31003 4.24252
RightHand  -1.23644 9.32778 -10.0947
LeftUpLeg  -2.53257 -0.572596 -9.32667
LeftLeg  18.2193 9.38749 3.20678
LeftFoot  -15.9296 0.213713 2.93422
LeftToes  3.91355e-005 3.11907e-005 -4.10385e-006
240
root  2.16233 66.0248 -7.26926 172.917 13.9505 176.51
RightUpLeg  -22.1611 -4.67275 -3.91213
RightLeg  58.6742 -1.02382 -2.31304
RightFoot  -6.75615 0.0791265 -3.09341
RightToes  2.84633e-005 7.89722e-005 -0.000426369
Spine  2.22227 0.0245762 -1.72716
Spine1  4.43408 -0.467306 0.778687
HEad  32.6227 6.15063 -9.6572
LeftShoulder1  -3.88251e-019 0 -3.92111e-022
LeftArm  -36.5414 3.32699 -83.2333
LeftForeArm  28.8279 2.10548 1.51888
LeftHand  -0.726377 -4.20273 9.05967
RightShoulder  7.45443e-017 -2.42657e-020 1.96277e-018
RightArm  -28.8325 -16.5862 72.0653
RightForeArm  25.613 4.54415 4.43567
RightHand  -1.13525 9.02492 -9.48806
LeftUpLeg  -1.56303 0.372421 -8.29905
LeftLeg  19.818 8.41686 3.453
LeftFoot  -18.1008 0.279985 2.90008
LeftToes  3.91355e-005 3.11907e-005 -4.10385e-006
241
root  2.40652 65.9367 -8.11833 172.677 13.5889 177.603
RightUpLeg  -22.623 -5.13875 -2.50026
RightLeg  49.8769 -1.33045 -2.0435
RightFoot  -3.54604 0.187097 -3.09641
RightToes  2.84633e-005 7.89722e-005 -0.000426369
Spine  2.45631 -0.326237 -0.630212
Spine1  4.96481 -0.930719 1.74737
HEad  33.2088 7.42338 -10.4998
LeftShoulder1  -3.88251e-019 0 -3.92111e-022
LeftArm  -36.0288 1.86328 -83.4914
LeftForeArm  26.8739 1.78893 0.833598
LeftHand  -0.688283 -4.41207 8.42938
RightShoulder  7.45443e-017 -2.42657e-020 1.96277e-018
RightArm  -28.5823 -16.5614 71.5842
RightForeArm  25.3554 5.14028 4.81979
RightHand  -1.13312 8.99526 -9.4899
LeftUpLeg  -0.71014 0.815142 -7.15767
LeftLeg  22.4596 7.89252 3.91185
LeftFoot  -20.626 0.340005 2.66102
LeftToes  3.91355e-005 3.11907e-005 -4.10385e-006
